<svg width="168" height="23" viewBox="0 0 168 23" fill="none" xmlns="http://www.w3.org/2000/svg">
<path d="M26.3766 11.2401C26.3766 14.6948 23.576 17.4954 20.1213 17.4954C16.6666 17.4954 13.866 14.6948 13.866 11.2401C13.866 7.78534 16.6666 4.98474 20.1213 4.98474C23.576 4.98474 26.3766 7.78534 26.3766 11.2401ZM15.782 11.2401C15.782 13.6366 17.7248 15.5794 20.1213 15.5794C22.5178 15.5794 24.4606 13.6366 24.4606 11.2401C24.4606 8.84354 22.5178 6.90077 20.1213 6.90077C17.7248 6.90077 15.782 8.84354 15.782 11.2401Z" fill="black"/>
<path d="M12.5106 11.24C12.5106 14.6947 9.71004 17.4953 6.25532 17.4953C2.8006 17.4953 0 14.6947 0 11.24C0 7.78528 2.8006 4.98468 6.25532 4.98468C9.71004 4.98468 12.5106 7.78528 12.5106 11.24ZM1.91603 11.24C1.91603 13.6365 3.8588 15.5793 6.25532 15.5793C8.65185 15.5793 10.5946 13.6365 10.5946 11.24C10.5946 8.84348 8.65185 6.90071 6.25532 6.90071C3.8588 6.90071 1.91603 8.84348 1.91603 11.24Z" fill="#FF9900"/>
<path d="M9.07022 11.2401C9.07022 12.7947 7.80995 14.055 6.25532 14.055C4.7007 14.055 3.44043 12.7947 3.44043 11.2401C3.44043 9.68544 4.7007 8.42517 6.25532 8.42517C7.80995 8.42517 9.07022 9.68544 9.07022 11.2401ZM4.657 11.2401C4.657 12.1228 5.37259 12.8384 6.25532 12.8384C7.13806 12.8384 7.85365 12.1228 7.85365 11.2401C7.85365 10.3573 7.13806 9.64174 6.25532 9.64174C5.37259 9.64174 4.657 10.3573 4.657 11.2401Z" fill="black"/>
<path d="M15.7887 18.2252C16.2814 18.2252 16.6922 18.6311 16.5658 19.1074C16.4115 19.6889 16.1059 20.2251 15.6732 20.6579C15.028 21.3031 14.1529 21.6656 13.2404 21.6656C12.328 21.6656 11.4529 21.3031 10.8077 20.6579C10.3749 20.2251 10.0693 19.6889 9.91501 19.1074C9.78865 18.6311 10.1994 18.2252 10.6921 18.2252V18.2252C11.0206 18.2252 11.2783 18.4974 11.3767 18.8108C11.4702 19.1083 11.6345 19.3819 11.8591 19.6065C12.2254 19.9729 12.7223 20.1787 13.2404 20.1787C13.7585 20.1787 14.2554 19.9729 14.6218 19.6065C14.8463 19.3819 15.0106 19.1083 15.1041 18.8108C15.2026 18.4974 15.4602 18.2252 15.7887 18.2252V18.2252Z" fill="black"/>
<circle cx="20.1213" cy="11.2401" r="2.81489" fill="#FF9900"/>
<path d="M32.4764 6.42059C32.6439 6.42059 32.8174 6.46844 32.9968 6.56415C33.1882 6.64789 33.3318 6.76154 33.4275 6.9051L37.7881 13.6165L36.8909 13.5806L41.3592 6.9051C41.5865 6.58209 41.8796 6.42059 42.2385 6.42059C42.5256 6.42059 42.7828 6.52227 43.0101 6.72565C43.2374 6.92903 43.351 7.19222 43.351 7.51523V17.9054C43.351 18.2164 43.2494 18.4796 43.046 18.6949C42.8426 18.8983 42.5734 19 42.2385 19C41.9035 19 41.6283 18.8983 41.413 18.6949C41.2096 18.4796 41.1079 18.2164 41.1079 17.9054V9.45328L41.8078 9.61479L38.147 15.1957C38.0393 15.3273 37.9018 15.4409 37.7343 15.5366C37.5788 15.6323 37.4172 15.6742 37.2498 15.6622C37.0942 15.6742 36.9327 15.6323 36.7652 15.5366C36.6097 15.4409 36.4781 15.3273 36.3705 15.1957L32.943 9.77629L33.4095 8.82521V17.9054C33.4095 18.2164 33.3138 18.4796 33.1224 18.6949C32.931 18.8983 32.6798 19 32.3687 19C32.0697 19 31.8244 18.8983 31.633 18.6949C31.4416 18.4796 31.3459 18.2164 31.3459 17.9054V7.51523C31.3459 7.21615 31.4535 6.95894 31.6689 6.7436C31.8962 6.52826 32.1654 6.42059 32.4764 6.42059ZM53.2806 9.22C53.5917 9.22 53.8489 9.32169 54.0523 9.52506C54.2556 9.72844 54.3573 9.99163 54.3573 10.3146V17.9054C54.3573 18.2164 54.2556 18.4796 54.0523 18.6949C53.8489 18.8983 53.5917 19 53.2806 19C52.9696 19 52.7124 18.8983 52.509 18.6949C52.3056 18.4796 52.2039 18.2164 52.2039 17.9054V17.0261L52.5987 17.1876C52.5987 17.3431 52.515 17.5345 52.3475 17.7618C52.18 17.9771 51.9527 18.1925 51.6656 18.4078C51.3785 18.6232 51.0375 18.8086 50.6427 18.9641C50.2599 19.1077 49.8412 19.1794 49.3866 19.1794C48.5611 19.1794 47.8134 18.9701 47.1435 18.5514C46.4735 18.1207 45.9411 17.5345 45.5464 16.7928C45.1635 16.0391 44.9721 15.1777 44.9721 14.2087C44.9721 13.2277 45.1635 12.3663 45.5464 11.6246C45.9411 10.8709 46.4675 10.2847 47.1255 9.86602C47.7835 9.43534 48.5133 9.22 49.3148 9.22C49.8292 9.22 50.3018 9.29776 50.7325 9.45328C51.1631 9.60881 51.534 9.8062 51.845 10.0455C52.168 10.2847 52.4133 10.53 52.5808 10.7812C52.7602 11.0205 52.85 11.2239 52.85 11.3913L52.2039 11.6246V10.3146C52.2039 10.0036 52.3056 9.74638 52.509 9.54301C52.7124 9.32767 52.9696 9.22 53.2806 9.22ZM49.6558 17.2055C50.1821 17.2055 50.6427 17.0739 51.0375 16.8107C51.4323 16.5475 51.7374 16.1886 51.9527 15.734C52.18 15.2794 52.2937 14.771 52.2937 14.2087C52.2937 13.6345 52.18 13.12 51.9527 12.6654C51.7374 12.2108 51.4323 11.8519 51.0375 11.5887C50.6427 11.3255 50.1821 11.1939 49.6558 11.1939C49.1413 11.1939 48.6867 11.3255 48.2919 11.5887C47.8971 11.8519 47.5861 12.2108 47.3588 12.6654C47.1435 13.12 47.0358 13.6345 47.0358 14.2087C47.0358 14.771 47.1435 15.2794 47.3588 15.734C47.5861 16.1886 47.8971 16.5475 48.2919 16.8107C48.6867 17.0739 49.1413 17.2055 49.6558 17.2055ZM57.317 19C57.0059 19 56.7487 18.8983 56.5454 18.6949C56.342 18.4796 56.2403 18.2164 56.2403 17.9054V10.4941C56.2403 10.183 56.342 9.92583 56.5454 9.72246C56.7487 9.50712 57.0059 9.39945 57.317 9.39945C57.628 9.39945 57.8852 9.50712 58.0886 9.72246C58.292 9.92583 58.3937 10.183 58.3937 10.4941V12.1809L58.2681 10.9786C58.3997 10.6915 58.5672 10.4403 58.7705 10.2249C58.9859 9.99761 59.2251 9.81218 59.4883 9.66862C59.7515 9.5131 60.0327 9.39945 60.3317 9.32767C60.6308 9.25589 60.9299 9.22 61.229 9.22C61.5879 9.22 61.887 9.32169 62.1262 9.52506C62.3775 9.72844 62.5031 9.96771 62.5031 10.2429C62.5031 10.6377 62.4014 10.9248 62.198 11.1042C61.9946 11.2717 61.7733 11.3554 61.5341 11.3554C61.3067 11.3554 61.0974 11.3136 60.906 11.2298C60.7265 11.1461 60.5172 11.1042 60.2779 11.1042C60.0626 11.1042 59.8412 11.1581 59.6139 11.2657C59.3986 11.3614 59.1952 11.517 59.0038 11.7323C58.8244 11.9476 58.6748 12.2168 58.5552 12.5398C58.4475 12.8509 58.3937 13.2217 58.3937 13.6524V17.9054C58.3937 18.2164 58.292 18.4796 58.0886 18.6949C57.8852 18.8983 57.628 19 57.317 19ZM64.8286 19C64.5176 19 64.2604 18.8983 64.057 18.6949C63.8536 18.4796 63.7519 18.2164 63.7519 17.9054V6.81538C63.7519 6.50433 63.8536 6.24712 64.057 6.04374C64.2604 5.8284 64.5176 5.72073 64.8286 5.72073C65.1397 5.72073 65.3969 5.8284 65.6003 6.04374C65.8036 6.24712 65.9053 6.50433 65.9053 6.81538V17.9054C65.9053 18.2164 65.8036 18.4796 65.6003 18.6949C65.3969 18.8983 65.1397 19 64.8286 19ZM70.5351 9.39945C70.8103 9.39945 71.0495 9.5131 71.2529 9.7404C71.4563 9.96771 71.558 10.189 71.558 10.4044C71.558 10.6915 71.4144 10.9607 71.1273 11.2119L65.7259 16.1826L65.6362 13.7062L69.7455 9.7404C69.9729 9.5131 70.236 9.39945 70.5351 9.39945ZM70.8043 18.9821C70.4933 18.9821 70.2301 18.8624 70.0147 18.6232L66.6949 15.1059L68.3279 13.5986L71.558 17.1158C71.7853 17.355 71.8989 17.6242 71.8989 17.9233C71.8989 18.2343 71.7733 18.4916 71.5221 18.6949C71.2828 18.8863 71.0436 18.9821 70.8043 18.9821ZM77.4596 19.1794C76.4428 19.1794 75.5575 18.9701 74.8038 18.5514C74.0621 18.1207 73.4878 17.5405 73.0811 16.8107C72.6863 16.081 72.4889 15.2555 72.4889 14.3343C72.4889 13.2576 72.7042 12.3424 73.1349 11.5887C73.5775 10.8231 74.1518 10.2369 74.8576 9.83013C75.5635 9.42338 76.3112 9.22 77.1007 9.22C77.7109 9.22 78.2851 9.34561 78.8235 9.59684C79.3738 9.84807 79.8583 10.195 80.277 10.6377C80.6957 11.0683 81.0247 11.5708 81.264 12.145C81.5152 12.7193 81.6408 13.3294 81.6408 13.9754C81.6288 14.2625 81.5152 14.4958 81.2999 14.6753C81.0845 14.8547 80.8333 14.9444 80.5462 14.9444H73.6912L73.1528 13.1499H79.7386L79.3439 13.5088V13.0243C79.3199 12.6774 79.1943 12.3663 78.967 12.0912C78.7517 11.816 78.4765 11.6007 78.1415 11.4452C77.8185 11.2777 77.4716 11.1939 77.1007 11.1939C76.7418 11.1939 76.4069 11.2418 76.0958 11.3375C75.7848 11.4332 75.5156 11.5947 75.2883 11.822C75.061 12.0493 74.8815 12.3544 74.75 12.7372C74.6184 13.12 74.5526 13.6046 74.5526 14.1908C74.5526 14.8368 74.6842 15.3871 74.9473 15.8417C75.2225 16.2843 75.5694 16.6253 75.9882 16.8646C76.4188 17.0919 76.8734 17.2055 77.352 17.2055C77.7946 17.2055 78.1475 17.1696 78.4107 17.0978C78.6739 17.0261 78.8833 16.9423 79.0388 16.8466C79.2063 16.7389 79.3558 16.6492 79.4874 16.5774C79.7028 16.4698 79.9061 16.4159 80.0975 16.4159C80.3607 16.4159 80.5761 16.5057 80.7436 16.6851C80.923 16.8646 81.0127 17.0739 81.0127 17.3132C81.0127 17.6362 80.8453 17.9293 80.5103 18.1925C80.1992 18.4557 79.7626 18.689 79.2003 18.8923C78.638 19.0837 78.0578 19.1794 77.4596 19.1794ZM83.1813 9.5789H87.4342C87.7213 9.5789 87.9606 9.67461 88.152 9.86602C88.3434 10.0574 88.4391 10.2967 88.4391 10.5838C88.4391 10.859 88.3434 11.0923 88.152 11.2837C87.9606 11.4631 87.7213 11.5528 87.4342 11.5528H83.1813C82.8942 11.5528 82.6549 11.4571 82.4635 11.2657C82.2721 11.0743 82.1764 10.835 82.1764 10.5479C82.1764 10.2728 82.2721 10.0455 82.4635 9.86602C82.6549 9.67461 82.8942 9.5789 83.1813 9.5789ZM85.1014 7.33578C85.4124 7.33578 85.6637 7.44345 85.8551 7.65879C86.0584 7.86216 86.1601 8.11938 86.1601 8.43042V16.4159C86.1601 16.5834 86.19 16.721 86.2499 16.8287C86.3216 16.9363 86.4114 17.0141 86.519 17.0619C86.6387 17.1098 86.7643 17.1337 86.8959 17.1337C87.0394 17.1337 87.171 17.1098 87.2907 17.0619C87.4103 17.0021 87.5479 16.9722 87.7034 16.9722C87.8709 16.9722 88.0204 17.05 88.152 17.2055C88.2956 17.361 88.3674 17.5764 88.3674 17.8515C88.3674 18.1865 88.1819 18.4617 87.8111 18.677C87.4522 18.8923 87.0634 19 86.6446 19C86.3934 19 86.1123 18.9821 85.8012 18.9462C85.5022 18.8983 85.215 18.7966 84.9399 18.6411C84.6767 18.4736 84.4554 18.2224 84.2759 17.8874C84.0965 17.5524 84.0067 17.0919 84.0067 16.5057V8.43042C84.0067 8.11938 84.1084 7.86216 84.3118 7.65879C84.5271 7.44345 84.7903 7.33578 85.1014 7.33578ZM95.7819 19C95.4828 19 95.2315 18.8983 95.0282 18.6949C94.8248 18.4796 94.7231 18.2164 94.7231 17.9054V9.47123L95.0999 9.56095L91.6366 13.8498L91.5468 13.6165H97.8994C98.1865 13.6165 98.4257 13.7122 98.6172 13.9036C98.8086 14.095 98.9043 14.3343 98.9043 14.6214C98.9043 14.8966 98.8086 15.1299 98.6172 15.3213C98.4257 15.5007 98.1865 15.5905 97.8994 15.5905H90.0574C89.8062 15.5905 89.5609 15.4888 89.3217 15.2854C89.0944 15.082 88.9807 14.8308 88.9807 14.5317C88.9807 14.2685 89.0704 14.0292 89.2499 13.8139L94.9205 6.86921C95.0162 6.73761 95.1418 6.63593 95.2973 6.56415C95.4529 6.4804 95.6263 6.43853 95.8177 6.43853C96.1288 6.43853 96.38 6.5462 96.5714 6.76154C96.7748 6.96492 96.8765 7.22213 96.8765 7.53317V17.9054C96.8765 18.2164 96.7688 18.4796 96.5535 18.6949C96.3501 18.8983 96.0929 19 95.7819 19Z" fill="#FF9900"/>
<path d="M111.805 12.7193C111.805 13.6404 111.655 14.4958 111.356 15.2854C111.057 16.063 110.638 16.7449 110.1 17.3311C109.562 17.9173 108.922 18.3719 108.18 18.6949C107.438 19.0179 106.631 19.1794 105.757 19.1794C104.872 19.1794 104.058 19.0179 103.317 18.6949C102.587 18.3719 101.953 17.9173 101.415 17.3311C100.876 16.7449 100.458 16.063 100.158 15.2854C99.8594 14.4958 99.7098 13.6404 99.7098 12.7193C99.7098 11.7861 99.8594 10.9308 100.158 10.1531C100.458 9.36356 100.876 8.68165 101.415 8.10741C101.953 7.52121 102.587 7.06661 103.317 6.7436C104.058 6.42059 104.872 6.25908 105.757 6.25908C106.631 6.25908 107.438 6.42059 108.18 6.7436C108.922 7.06661 109.562 7.52121 110.1 8.10741C110.638 8.68165 111.057 9.36356 111.356 10.1531C111.655 10.9308 111.805 11.7861 111.805 12.7193ZM110.261 12.7193C110.261 11.7383 110.064 10.8709 109.669 10.1172C109.286 9.36356 108.76 8.77138 108.09 8.3407C107.42 7.91002 106.643 7.69468 105.757 7.69468C104.872 7.69468 104.088 7.91002 103.406 8.3407C102.737 8.77138 102.21 9.36356 101.827 10.1172C101.445 10.8709 101.253 11.7383 101.253 12.7193C101.253 13.6883 101.445 14.5556 101.827 15.3213C102.21 16.075 102.737 16.6672 103.406 17.0978C104.088 17.5285 104.872 17.7439 105.757 17.7439C106.643 17.7439 107.42 17.5285 108.09 17.0978C108.76 16.6672 109.286 16.075 109.669 15.3213C110.064 14.5556 110.261 13.6883 110.261 12.7193ZM118.062 9.5789C118.875 9.5789 119.605 9.78227 120.251 10.189C120.897 10.5958 121.405 11.1581 121.776 11.8759C122.159 12.5937 122.35 13.4191 122.35 14.3523C122.35 15.2734 122.159 16.0989 121.776 16.8287C121.405 17.5465 120.897 18.1147 120.251 18.5334C119.617 18.9402 118.899 19.1436 118.098 19.1436C117.655 19.1436 117.236 19.0778 116.841 18.9462C116.459 18.8026 116.106 18.6232 115.783 18.4078C115.472 18.1805 115.208 17.9293 114.993 17.6541C114.778 17.367 114.622 17.0859 114.526 16.8107L114.921 16.5595V21.8532C114.921 22.0566 114.855 22.2301 114.724 22.3737C114.592 22.5172 114.419 22.589 114.203 22.589C114 22.589 113.827 22.5172 113.683 22.3737C113.551 22.2421 113.486 22.0686 113.486 21.8532V10.3864C113.486 10.183 113.551 10.0156 113.683 9.88396C113.827 9.7404 114 9.66862 114.203 9.66862C114.419 9.66862 114.592 9.7404 114.724 9.88396C114.855 10.0156 114.921 10.183 114.921 10.3864V11.9835L114.652 11.84C114.736 11.5409 114.879 11.2538 115.083 10.9786C115.298 10.7034 115.555 10.4642 115.854 10.2608C116.165 10.0455 116.506 9.87798 116.877 9.75835C117.26 9.63872 117.655 9.5789 118.062 9.5789ZM117.9 10.9068C117.302 10.9068 116.77 11.0564 116.303 11.3554C115.848 11.6545 115.49 12.0613 115.226 12.5757C114.975 13.0901 114.849 13.6823 114.849 14.3523C114.849 15.0102 114.975 15.6024 115.226 16.1288C115.49 16.6552 115.848 17.0679 116.303 17.367C116.77 17.6661 117.302 17.8156 117.9 17.8156C118.498 17.8156 119.025 17.6661 119.479 17.367C119.934 17.0679 120.293 16.6552 120.556 16.1288C120.819 15.6024 120.951 15.0102 120.951 14.3523C120.951 13.6823 120.819 13.0901 120.556 12.5757C120.293 12.0613 119.934 11.6545 119.479 11.3554C119.025 11.0564 118.498 10.9068 117.9 10.9068ZM123.701 9.77629H127.918C128.109 9.77629 128.265 9.84209 128.385 9.97369C128.516 10.1053 128.582 10.2608 128.582 10.4403C128.582 10.6317 128.516 10.7932 128.385 10.9248C128.265 11.0444 128.109 11.1042 127.918 11.1042H123.701C123.522 11.1042 123.366 11.0384 123.234 10.9068C123.103 10.7752 123.037 10.6137 123.037 10.4223C123.037 10.2429 123.103 10.0933 123.234 9.97369C123.366 9.84209 123.522 9.77629 123.701 9.77629ZM125.585 7.33578C125.789 7.33578 125.956 7.40756 126.088 7.55112C126.219 7.68272 126.285 7.8502 126.285 8.05358V16.721C126.285 17.0081 126.327 17.2234 126.411 17.367C126.494 17.5106 126.602 17.6123 126.734 17.6721C126.877 17.7199 127.015 17.7439 127.146 17.7439C127.266 17.7439 127.368 17.7259 127.451 17.69C127.547 17.6422 127.655 17.6182 127.774 17.6182C127.894 17.6182 128.002 17.6781 128.097 17.7977C128.205 17.9054 128.259 18.0489 128.259 18.2284C128.259 18.4437 128.133 18.6291 127.882 18.7847C127.631 18.9282 127.35 19 127.039 19C126.871 19 126.662 18.988 126.411 18.9641C126.171 18.9402 125.932 18.8624 125.693 18.7308C125.454 18.5992 125.25 18.3839 125.083 18.0848C124.927 17.7738 124.849 17.3431 124.849 16.7928V8.05358C124.849 7.8502 124.921 7.68272 125.065 7.55112C125.208 7.40756 125.382 7.33578 125.585 7.33578ZM131.512 18.2643C131.512 18.4676 131.44 18.6411 131.297 18.7847C131.165 18.9282 130.998 19 130.794 19C130.579 19 130.405 18.9282 130.274 18.7847C130.142 18.6411 130.076 18.4676 130.076 18.2643V10.2967C130.076 10.0933 130.142 9.92583 130.274 9.79424C130.417 9.65068 130.591 9.5789 130.794 9.5789C130.998 9.5789 131.165 9.65068 131.297 9.79424C131.44 9.92583 131.512 10.0933 131.512 10.2967V18.2643ZM130.794 8.37659C130.495 8.37659 130.274 8.31677 130.13 8.19714C129.987 8.0775 129.915 7.89207 129.915 7.64084V7.38961C129.915 7.13838 129.993 6.95295 130.148 6.83332C130.304 6.71369 130.525 6.65387 130.812 6.65387C131.099 6.65387 131.315 6.71369 131.458 6.83332C131.602 6.95295 131.674 7.13838 131.674 7.38961V7.64084C131.674 7.89207 131.596 8.0775 131.44 8.19714C131.297 8.31677 131.081 8.37659 130.794 8.37659ZM137.77 9.48917C138.38 9.48917 138.93 9.55497 139.42 9.68657C139.911 9.81816 140.3 9.99761 140.587 10.2249C140.874 10.4522 141.018 10.7094 141.018 10.9966C141.018 11.1521 140.964 11.3016 140.856 11.4452C140.748 11.5887 140.605 11.6605 140.425 11.6605C140.258 11.6605 140.12 11.6306 140.013 11.5708C139.917 11.511 139.821 11.4332 139.726 11.3375C139.642 11.2418 139.522 11.1581 139.367 11.0863C139.223 11.0025 139.014 10.9367 138.739 10.8889C138.463 10.841 138.188 10.8171 137.913 10.8171C137.255 10.8171 136.675 10.9726 136.172 11.2837C135.682 11.5947 135.293 12.0134 135.006 12.5398C134.719 13.0662 134.575 13.6644 134.575 14.3343C134.575 15.0043 134.713 15.6024 134.988 16.1288C135.263 16.6552 135.646 17.0739 136.137 17.385C136.627 17.696 137.195 17.8515 137.841 17.8515C138.26 17.8515 138.595 17.8156 138.846 17.7439C139.097 17.6721 139.307 17.5883 139.474 17.4926C139.69 17.373 139.851 17.2534 139.959 17.1337C140.078 17.0141 140.234 16.9543 140.425 16.9543C140.629 16.9543 140.784 17.0201 140.892 17.1517C141.012 17.2833 141.071 17.4448 141.071 17.6362C141.071 17.8515 140.922 18.0788 140.623 18.3181C140.324 18.5574 139.917 18.7607 139.403 18.9282C138.9 19.0957 138.326 19.1794 137.68 19.1794C136.771 19.1794 135.975 18.9701 135.293 18.5514C134.611 18.1207 134.079 17.5405 133.696 16.8107C133.325 16.069 133.14 15.2435 133.14 14.3343C133.14 13.4251 133.331 12.6056 133.714 11.8759C134.109 11.1461 134.653 10.5659 135.347 10.1352C136.041 9.70451 136.848 9.48917 137.77 9.48917ZM150.144 9.63273C150.347 9.63273 150.514 9.70451 150.646 9.84807C150.79 9.97967 150.861 10.1472 150.861 10.3505V18.2643C150.861 18.4676 150.79 18.6411 150.646 18.7847C150.514 18.9282 150.347 19 150.144 19C149.928 19 149.755 18.9282 149.623 18.7847C149.492 18.6411 149.426 18.4676 149.426 18.2643V16.5595L149.767 16.5236C149.767 16.7868 149.677 17.0739 149.498 17.385C149.318 17.696 149.073 17.9891 148.762 18.2643C148.451 18.5274 148.08 18.7488 147.649 18.9282C147.231 19.0957 146.776 19.1794 146.285 19.1794C145.472 19.1794 144.742 18.9701 144.096 18.5514C143.45 18.1207 142.936 17.5405 142.553 16.8107C142.182 16.081 141.997 15.2495 141.997 14.3164C141.997 13.3713 142.182 12.5398 142.553 11.822C142.936 11.0923 143.45 10.524 144.096 10.1172C144.742 9.69853 145.46 9.48917 146.25 9.48917C146.764 9.48917 147.242 9.57292 147.685 9.7404C148.128 9.90789 148.511 10.1352 148.834 10.4223C149.169 10.7094 149.426 11.0265 149.605 11.3734C149.797 11.7203 149.892 12.0673 149.892 12.4142L149.426 12.3065V10.3505C149.426 10.1472 149.492 9.97967 149.623 9.84807C149.755 9.70451 149.928 9.63273 150.144 9.63273ZM146.447 17.8515C147.045 17.8515 147.571 17.696 148.026 17.385C148.493 17.0739 148.852 16.6552 149.103 16.1288C149.366 15.5905 149.498 14.9863 149.498 14.3164C149.498 13.6584 149.366 13.0662 149.103 12.5398C148.852 12.0015 148.493 11.5828 148.026 11.2837C147.571 10.9726 147.045 10.8171 146.447 10.8171C145.861 10.8171 145.334 10.9666 144.868 11.2657C144.413 11.5648 144.054 11.9775 143.791 12.5039C143.528 13.0303 143.396 13.6345 143.396 14.3164C143.396 14.9863 143.522 15.5905 143.773 16.1288C144.036 16.6552 144.395 17.0739 144.85 17.385C145.316 17.696 145.849 17.8515 146.447 17.8515ZM154.652 18.2643C154.652 18.4676 154.581 18.6411 154.437 18.7847C154.293 18.9282 154.12 19 153.917 19C153.713 19 153.546 18.9282 153.414 18.7847C153.283 18.6411 153.217 18.4676 153.217 18.2643V6.43853C153.217 6.23516 153.283 6.06767 153.414 5.93607C153.558 5.79251 153.731 5.72073 153.935 5.72073C154.15 5.72073 154.323 5.79251 154.455 5.93607C154.587 6.06767 154.652 6.23516 154.652 6.43853V18.2643ZM156.468 17.5285C156.36 17.373 156.312 17.2115 156.324 17.044C156.336 16.8646 156.438 16.709 156.629 16.5774C156.749 16.4937 156.886 16.4578 157.042 16.4698C157.209 16.4817 157.359 16.5595 157.491 16.703C157.826 17.0978 158.208 17.4149 158.639 17.6541C159.07 17.8814 159.596 17.9951 160.218 17.9951C160.505 17.9831 160.792 17.9353 161.08 17.8515C161.367 17.7678 161.606 17.6242 161.797 17.4208C162.001 17.2055 162.102 16.9244 162.102 16.5774C162.102 16.2425 162.001 15.9793 161.797 15.7879C161.594 15.5845 161.331 15.423 161.008 15.3033C160.685 15.1717 160.332 15.0581 159.949 14.9624C159.554 14.8547 159.165 14.7351 158.783 14.6035C158.4 14.4599 158.053 14.2865 157.742 14.0831C157.443 13.8677 157.198 13.6046 157.006 13.2935C156.827 12.9705 156.737 12.5817 156.737 12.1271C156.737 11.5887 156.88 11.1222 157.168 10.7274C157.467 10.3326 157.861 10.0275 158.352 9.81218C158.854 9.59684 159.399 9.48917 159.985 9.48917C160.32 9.48917 160.667 9.53105 161.026 9.61479C161.397 9.68657 161.756 9.81816 162.102 10.0096C162.449 10.189 162.754 10.4403 163.018 10.7633C163.125 10.8829 163.185 11.0324 163.197 11.2119C163.209 11.3913 163.131 11.5528 162.964 11.6964C162.832 11.7921 162.683 11.834 162.515 11.822C162.36 11.8101 162.228 11.7502 162.12 11.6426C161.869 11.3435 161.552 11.1162 161.169 10.9607C160.798 10.7932 160.386 10.7094 159.931 10.7094C159.644 10.7094 159.363 10.7513 159.088 10.835C158.813 10.9188 158.579 11.0623 158.388 11.2657C158.208 11.4571 158.119 11.7263 158.119 12.0732C158.131 12.3963 158.238 12.6594 158.442 12.8628C158.645 13.0662 158.92 13.2337 159.267 13.3653C159.614 13.4849 159.997 13.6046 160.416 13.7242C160.798 13.8199 161.163 13.9335 161.51 14.0651C161.869 14.1848 162.192 14.3463 162.479 14.5497C162.766 14.753 162.994 15.0162 163.161 15.3392C163.329 15.6503 163.412 16.0451 163.412 16.5236C163.412 17.0739 163.257 17.5524 162.946 17.9592C162.635 18.354 162.222 18.659 161.708 18.8744C161.205 19.0778 160.661 19.1794 160.075 19.1794C159.417 19.1794 158.765 19.0538 158.119 18.8026C157.485 18.5514 156.934 18.1267 156.468 17.5285Z" fill="black"/>
</svg>
